<svg width="30" height="30" viewBox="0 0 30 30" fill="none" xmlns="http://www.w3.org/2000/svg">
<path d="M14.222 4.88867V7.22201H11.8887V8.77756H14.222V11.1109H15.7776V8.77756H18.1109V7.22201H15.7776V4.88867H14.222Z" fill="#FFBB00"/>
<path fill-rule="evenodd" clip-rule="evenodd" d="M1 3.33333C1 2.71449 1.24583 2.121 1.68342 1.68342C2.121 1.24583 2.71449 1 3.33333 1H26.6667C27.2855 1 27.879 1.24583 28.3166 1.68342C28.7542 2.121 29 2.71449 29 3.33333V26.6667C29 27.2855 28.7542 27.879 28.3166 28.3166C27.879 28.7542 27.2855 29 26.6667 29H3.33333C2.71449 29 2.121 28.7542 1.68342 28.3166C1.24583 27.879 1 27.2855 1 26.6667V3.33333ZM2.55556 3.33333C2.55556 3.12705 2.6375 2.92922 2.78336 2.78336C2.92922 2.6375 3.12705 2.55556 3.33333 2.55556H26.6667C26.8729 2.55556 27.0708 2.6375 27.2166 2.78336C27.3625 2.92922 27.4444 3.12705 27.4444 3.33333V23.5556H25.3709C25.3708 23.5067 25.3661 23.458 25.3569 23.4101L24.3536 18.1469L25.8586 12.8806C25.9153 12.6822 25.8909 12.4695 25.7908 12.2891C25.6906 12.1088 25.523 11.9756 25.3246 11.9188C25.1263 11.8621 24.9135 11.8865 24.7332 11.9866C24.5528 12.0868 24.4196 12.2544 24.3629 12.4528L23.4303 15.7179H17.3333V17.2734H18.3507V18.5894H17.9314C17.752 18.5894 17.578 18.6514 17.439 18.7649C17.3 18.8785 17.2046 19.0366 17.1689 19.2125C17.1332 19.3884 17.1594 19.5712 17.2431 19.7299C17.3268 19.8887 17.4628 20.0136 17.6281 20.0836L16.5921 23.3191C16.5678 23.3956 16.5555 23.4753 16.5556 23.5556H13.4444C13.4444 23.475 13.4318 23.395 13.4071 23.3183L12.3727 20.0836C12.5375 20.0133 12.6731 19.8883 12.7564 19.7296C12.8398 19.571 12.8657 19.3884 12.83 19.2128C12.7942 19.0372 12.6989 18.8793 12.5602 18.7659C12.4214 18.6524 12.2478 18.5904 12.0686 18.5902H11.6493V17.2734H12.6667V15.7179H6.56889L5.63633 12.4528C5.61064 12.3519 5.56498 12.2573 5.50205 12.1744C5.43912 12.0916 5.36021 12.0222 5.26998 11.9703C5.17974 11.9185 5.08003 11.8853 4.97674 11.8728C4.87346 11.8602 4.76869 11.8684 4.66866 11.8971C4.56862 11.9257 4.47534 11.9741 4.39435 12.0394C4.31336 12.1047 4.2463 12.1856 4.19714 12.2774C4.14798 12.3691 4.11772 12.4697 4.10815 12.5733C4.09859 12.6769 4.10991 12.7814 4.14144 12.8806L5.64567 18.1469L4.64311 23.4101C4.63395 23.4581 4.62926 23.5067 4.62911 23.5556H2.55556V3.33333ZM26.6667 27.4444C26.8729 27.4444 27.0708 27.3625 27.2166 27.2166C27.3625 27.0708 27.4444 26.8729 27.4444 26.6667V25.1111H2.55556V26.6667C2.55556 26.8729 2.6375 27.0708 2.78336 27.2166C2.92922 27.3625 3.12705 27.4444 3.33333 27.4444H26.6667ZM22.7918 18.2566L22.8548 18.5894H19.9062V17.2734H22.9862L22.8073 17.8972C22.7741 18.0141 22.7688 18.1372 22.7918 18.2566ZM23.8006 23.5556L23.2079 20.4444H19.1456L18.15 23.5556H23.8006ZM7.20822 18.2566L7.14522 18.5894H10.0938V17.2734H7.01378L7.19267 17.8972C7.22586 18.0141 7.23118 18.1372 7.20822 18.2566ZM6.19944 23.5556L6.79211 20.4444H10.8544L11.85 23.5556H6.19944Z" fill="#FFBB00" stroke="#FFBB00" stroke-width="0.5"/>
</svg>
