<svg width="28" height="29" viewBox="0 0 28 29" fill="none" xmlns="http://www.w3.org/2000/svg">
<path d="M14.81 6.4407H13.1951C13.0474 6.4407 12.9265 6.5621 12.9265 6.71047V15.9938C12.9265 16.0815 12.9668 16.1624 13.0373 16.213L18.587 20.2831C18.7078 20.3708 18.8757 20.3472 18.963 20.2258L19.9232 18.9107C20.0139 18.7859 19.987 18.6173 19.8661 18.533L15.0786 15.0564V6.71047C15.0786 6.5621 14.9577 6.4407 14.81 6.4407ZM22.1894 8.97652L27.4537 10.268C27.6216 10.3085 27.7861 10.1804 27.7861 10.0084L27.813 4.56245C27.813 4.33652 27.5544 4.20838 27.3799 4.35L22.0887 8.50105C22.0487 8.53212 22.0183 8.5739 22.0009 8.62158C21.9834 8.66925 21.9798 8.7209 21.9903 8.77057C22.0008 8.82023 22.0251 8.86591 22.0603 8.90234C22.0955 8.93878 22.1403 8.96449 22.1894 8.97652ZM27.8197 19.1299L25.9161 18.4723C25.8497 18.4495 25.777 18.4536 25.7137 18.4839C25.6503 18.5141 25.6012 18.5681 25.577 18.6342C25.5132 18.8062 25.446 18.9748 25.3755 19.1434C24.7779 20.563 23.9218 21.841 22.8273 22.937C21.745 24.0274 20.4623 24.8966 19.0503 25.4964C17.5876 26.1175 16.0153 26.4364 14.4272 26.4338C12.8224 26.4338 11.268 26.1202 9.80418 25.4964C8.39221 24.8966 7.10951 24.0274 6.02717 22.937C4.93604 21.841 4.07991 20.563 3.47895 19.1434C2.86394 17.6734 2.54885 16.0945 2.55232 14.5C2.55232 12.8881 2.86456 11.3235 3.48566 9.85326C4.08327 8.43361 4.93939 7.15559 6.03389 6.05966C7.11623 4.96918 8.39893 4.09999 9.81089 3.50024C11.268 2.8764 12.8258 2.56279 14.4306 2.56279C16.0354 2.56279 17.5899 2.8764 19.0537 3.50024C20.4656 4.09999 21.7483 4.96918 22.8307 6.05966C23.1731 6.40698 23.4954 6.76779 23.7909 7.14884L25.7985 5.5707C23.1563 2.17838 19.0436 -0.00336819 14.4239 3.90333e-06C6.37969 0.003376 -0.0798305 6.56547 0.000745706 14.6484C0.0813219 22.5897 6.51063 29 14.4306 29C20.6585 29 25.9631 25.0344 27.9842 19.4806C28.0345 19.339 27.9607 19.1805 27.8197 19.1299Z" fill="#FFBB00"/>
</svg>
