<svg width="28" height="30" viewBox="0 0 28 30" fill="none" xmlns="http://www.w3.org/2000/svg">
<path d="M24.5483 2.02897C21.2992 -1.16226 15.3565 -0.521289 11.2883 3.47457C9.06675 5.65661 7.78935 8.75238 7.76158 10.9208C7.73381 13.0755 8.12259 16.2259 5.88714 18.4215L0 24.2039L1.97164 26.1405L7.85877 20.3581C10.0942 18.1624 13.3016 18.5443 15.4954 18.517C17.6892 18.4897 20.8549 17.2351 23.0765 15.053C27.1308 11.0572 27.7973 5.2202 24.5483 2.02897ZM11.7743 14.5621C9.64991 12.4755 10.3164 8.27506 13.2461 5.39749C16.1757 2.51993 20.4384 1.86532 22.5766 3.95189C24.701 6.03847 24.0345 10.2389 21.1048 13.1165C18.1752 15.994 13.9125 16.6486 11.7743 14.5621ZM22.4378 21.8173C23.1737 21.8173 23.8818 22.1037 24.3955 22.622C25.4785 23.6857 25.4785 25.4177 24.3955 26.4815C23.8818 26.986 23.1737 27.2724 22.4378 27.2724C21.7019 27.2724 20.9938 26.986 20.48 26.4678C19.397 25.4041 19.397 23.6721 20.48 22.6083C20.9938 22.1037 21.7019 21.8173 22.4378 21.8173ZM22.4378 19.0898C21.3381 19.0876 20.2625 19.4063 19.3475 20.0055C18.4325 20.6046 17.7193 21.4572 17.2983 22.455C16.8774 23.4529 16.7677 24.5511 16.9831 25.6103C17.1985 26.6695 17.7294 27.642 18.5084 28.4044C19.5914 29.4681 21.0215 30 22.4378 30C23.5375 30.0021 24.613 29.6834 25.528 29.0843C26.443 28.4852 27.1562 27.6326 27.5772 26.6347C27.9981 25.6369 28.1079 24.5387 27.8924 23.4795C27.677 22.4203 27.1461 21.4478 26.3672 20.6854C25.8511 20.1789 25.2384 19.7772 24.5642 19.5034C23.8899 19.2296 23.1674 19.0891 22.4378 19.0898Z" fill="#FFBB00"/>
</svg>
