<svg width="28" height="20" viewBox="0 0 28 20" fill="none" xmlns="http://www.w3.org/2000/svg">
<path d="M2.3714 7.51485C5.39068 4.60389 9.4864 2.81422 14.0022 2.81422C18.518 2.81422 22.6137 4.60389 25.633 7.51485C26.1931 8.05131 27.077 8.03372 27.6108 7.47527C28.1447 6.91682 28.1272 6.02419 27.5714 5.48773C24.0533 2.08868 19.2706 0 14.0022 0C8.73376 0 3.95105 2.08868 0.428557 5.48333C-0.127166 6.02419 -0.144669 6.91243 0.389175 7.47527C0.923018 8.03811 1.8113 8.0557 2.36702 7.51485H2.3714ZM14.0022 9.84977C16.4876 9.84977 18.7543 10.7776 20.4871 12.3122C21.0691 12.8267 21.953 12.7695 22.4649 12.1891C22.9769 11.6087 22.92 10.716 22.3424 10.2015C20.1195 8.23159 17.1965 7.03555 14.0022 7.03555C10.8079 7.03555 7.88487 8.23159 5.66635 10.2015C5.08437 10.716 5.03186 11.6043 5.54383 12.1891C6.05579 12.7739 6.9397 12.8267 7.52168 12.3122C9.2501 10.7776 11.5168 9.84977 14.0066 9.84977H14.0022ZM16.8027 16.8853C16.8027 16.1389 16.5076 15.4231 15.9824 14.8954C15.4572 14.3676 14.7449 14.0711 14.0022 14.0711C13.2595 14.0711 12.5471 14.3676 12.0219 14.8954C11.4967 15.4231 11.2017 16.1389 11.2017 16.8853C11.2017 17.6317 11.4967 18.3475 12.0219 18.8753C12.5471 19.403 13.2595 19.6995 14.0022 19.6995C14.7449 19.6995 15.4572 19.403 15.9824 18.8753C16.5076 18.3475 16.8027 17.6317 16.8027 16.8853Z" fill="#FFBB00"/>
</svg>
