<svg width="32" height="34" viewBox="0 0 32 34" fill="none" xmlns="http://www.w3.org/2000/svg">
<path d="M30 22.9994V10.999C29.9992 10.4737 29.8553 9.95778 29.5826 9.5022C29.3099 9.04662 28.9178 8.66722 28.4452 8.40156L17.5548 2.40136C17.0825 2.13847 16.5461 2 16 2C15.4539 2 14.9175 2.13847 14.4452 2.40136L3.55484 8.40156C3.08049 8.6654 2.68703 9.0444 2.41408 9.50039C2.14112 9.95638 1.99831 10.4733 2.00002 10.999V23.0026C2.00108 23.5276 2.14508 24.0432 2.41777 24.4985C2.69047 24.9538 3.08241 25.3329 3.55484 25.5984L14.4452 31.5986C14.9175 31.8615 15.4539 32 16 32C16.5461 32 17.0825 31.8615 17.5548 31.5986L28.4452 25.5984C28.9197 25.3345 29.3134 24.9552 29.5863 24.4989C29.8593 24.0426 30.002 23.5254 30 22.9994Z" stroke="#FFBB00" stroke-width="2.3" stroke-linecap="round" stroke-linejoin="round"/>
<path d="M11.0586 9.89258H20.9409M11.0586 14.279H20.9409M18.0586 25.6826L11.0586 18.6655H13.5292C19.0205 18.6655 19.0205 9.89258 13.5292 9.89258" stroke="#FFBB00" stroke-width="2.3" stroke-linecap="round" stroke-linejoin="round"/>
</svg>
