<svg width="32" height="32" viewBox="0 0 32 32" fill="none" xmlns="http://www.w3.org/2000/svg">
<path d="M2 19.1129C3.29125 20.1117 5.23123 20.6951 7.44502 20.6687C9.65881 20.6951 11.5988 20.1117 12.89 19.1129C14.1813 18.1142 16.1213 17.5308 18.3351 17.5572C20.5489 17.5308 22.4888 18.1142 23.7801 19.1129M9.7786 2C9.28623 2.35341 8.88729 2.82138 8.61624 3.36347C8.3452 3.90557 8.21019 4.5055 8.22288 5.11144C8.21019 5.71739 8.3452 6.31732 8.61624 6.85941C8.88729 7.40151 9.28623 7.86947 9.7786 8.22288M16.0015 2C15.5091 2.35341 15.1102 2.82138 14.8391 3.36347C14.5681 3.90557 14.4331 4.5055 14.4458 5.11144C14.4331 5.71739 14.5681 6.31732 14.8391 6.85941C15.1102 7.40151 15.5091 7.86947 16.0015 8.22288" stroke="#FFBB00" stroke-width="2.5" stroke-linecap="round" stroke-linejoin="round"/>
<path d="M2 12.8906H23.7801V20.6692C23.7801 23.1448 22.7967 25.5191 21.0461 27.2696C19.2956 29.0201 16.9214 30.0036 14.4458 30.0036H11.3343C8.85871 30.0036 6.48449 29.0201 4.73396 27.2696C2.98344 25.5191 2 23.1448 2 20.6692V12.8906Z" stroke="#FFBB00" stroke-width="2.5" stroke-linecap="round" stroke-linejoin="round"/>
<path d="M23.3867 23.3541C24.0815 23.673 24.844 23.8164 25.6072 23.7716C26.3704 23.7269 27.1109 23.4953 27.7636 23.0973C28.4163 22.6993 28.9613 22.1471 29.3506 21.4891C29.7399 20.8312 29.9616 20.0877 29.9963 19.324C30.0309 18.5603 29.8774 17.7997 29.5493 17.1093C29.2211 16.4188 28.7284 15.8195 28.1144 15.364C27.5004 14.9085 26.7839 14.6109 26.0279 14.4972C25.2719 14.3835 24.4996 14.4573 23.7788 14.712" stroke="#FFBB00" stroke-width="2.5" stroke-linecap="round" stroke-linejoin="round"/>
</svg>
