<svg width="32" height="18" viewBox="0 0 32 18" fill="none" xmlns="http://www.w3.org/2000/svg">
<path d="M10.1456 2H6.582C6.37947 2 6.18523 2.0885 6.04202 2.24603C5.89881 2.40356 5.81836 2.61722 5.81836 2.84V15.16C5.81836 15.2703 5.83811 15.3795 5.87649 15.4815C5.91486 15.5834 5.97111 15.676 6.04202 15.754C6.11293 15.832 6.19712 15.8938 6.28976 15.9361C6.38241 15.9783 6.48171 16 6.582 16H10.1456C10.2459 16 10.3452 15.9783 10.4379 15.9361C10.5305 15.8938 10.6147 15.832 10.6856 15.754C10.7565 15.676 10.8128 15.5834 10.8511 15.4815C10.8895 15.3795 10.9093 15.2703 10.9093 15.16V2.84C10.9093 2.61722 10.8288 2.40356 10.6856 2.24603C10.5424 2.0885 10.3482 2 10.1456 2ZM25.4184 2H21.8547C21.6522 2 21.458 2.0885 21.3147 2.24603C21.1715 2.40356 21.0911 2.61722 21.0911 2.84V15.16C21.0911 15.2703 21.1108 15.3795 21.1492 15.4815C21.1876 15.5834 21.2438 15.676 21.3147 15.754C21.3857 15.832 21.4698 15.8938 21.5625 15.9361C21.6551 15.9783 21.7544 16 21.8547 16H25.4184C25.5186 16 25.6179 15.9783 25.7106 15.9361C25.8032 15.8938 25.8874 15.832 25.9583 15.754C26.0292 15.676 26.0855 15.5834 26.1239 15.4815C26.1622 15.3795 26.182 15.2703 26.182 15.16V2.84C26.182 2.61722 26.1015 2.40356 25.9583 2.24603C25.8151 2.0885 25.6209 2 25.4184 2Z" stroke="#FFBB00" stroke-width="2.5" stroke-linecap="round" stroke-linejoin="round"/>
<path d="M10.9091 9.00078H21.0909M2 12.3608V5.64078C2 5.418 2.08045 5.20434 2.22366 5.04681C2.36687 4.88928 2.56111 4.80078 2.76364 4.80078H5.05455C5.25707 4.80078 5.45131 4.88928 5.59452 5.04681C5.73773 5.20434 5.81818 5.418 5.81818 5.64078V12.3608C5.81818 12.5836 5.73773 12.7972 5.59452 12.9548C5.45131 13.1123 5.25707 13.2008 5.05455 13.2008H2.76364C2.56111 13.2008 2.36687 13.1123 2.22366 12.9548C2.08045 12.7972 2 12.5836 2 12.3608ZM30 12.3608V5.64078C30 5.418 29.9195 5.20434 29.7763 5.04681C29.6331 4.88928 29.4389 4.80078 29.2364 4.80078H26.9455C26.7429 4.80078 26.5487 4.88928 26.4055 5.04681C26.2623 5.20434 26.1818 5.418 26.1818 5.64078V12.3608C26.1818 12.5836 26.2623 12.7972 26.4055 12.9548C26.5487 13.1123 26.7429 13.2008 26.9455 13.2008H29.2364C29.4389 13.2008 29.6331 13.1123 29.7763 12.9548C29.9195 12.7972 30 12.5836 30 12.3608Z" stroke="#FFBB00" stroke-width="2.5" stroke-linecap="round" stroke-linejoin="round"/>
</svg>
