<svg width="20" height="20" viewBox="0 0 20 20" fill="none" xmlns="http://www.w3.org/2000/svg">
<g filter="url(#filter0_d_1_1197)">
<path d="M9.59069 2.90042L9.59064 2.90042C8.96645 2.96162 8.57355 3.04047 8.07319 3.20561C6.0639 3.8688 4.54587 5.53275 4.05063 7.61704C3.93217 8.11064 3.9 8.40468 3.9 8.99795C3.9 9.6853 3.95687 10.1045 4.13667 10.7179C4.16796 10.828 4.2258 10.9989 4.27837 11.1447C4.30479 11.218 4.33025 11.286 4.3508 11.338C4.36104 11.3638 4.37037 11.3864 4.37818 11.404C4.38205 11.4128 4.38595 11.4212 4.38971 11.4285L4.38978 11.4286C4.39225 11.4335 4.39869 11.446 4.40806 11.4573L4.41388 11.4643L4.41417 11.464C4.44205 11.4919 4.47569 11.4934 4.48094 11.4936C4.48111 11.4936 4.48124 11.4936 4.48135 11.4936C4.49163 11.4942 4.50011 11.4931 4.50429 11.4925C4.51339 11.4912 4.52198 11.489 4.52793 11.4873C4.54076 11.4837 4.55617 11.4785 4.57188 11.4728C4.60394 11.4612 4.64486 11.4449 4.68542 11.4279C4.72606 11.4108 4.76769 11.3925 4.80121 11.3765C4.81786 11.3686 4.83348 11.3609 4.84633 11.3539C4.8527 11.3504 4.85936 11.3466 4.86554 11.3427C4.86956 11.3401 4.87803 11.3346 4.88656 11.3268C4.9122 11.3038 4.91884 11.2754 4.92089 11.2644C4.92356 11.2499 4.9233 11.2368 4.92273 11.228C4.92156 11.2099 4.91767 11.1908 4.91344 11.1738C4.90468 11.1388 4.89022 11.0966 4.87331 11.055L4.87271 11.0535L4.87269 11.0535C4.79307 10.8662 4.67353 10.4842 4.61868 10.2507C4.51158 9.77937 4.48793 9.55671 4.49033 8.97411C4.49274 8.47497 4.49991 8.37233 4.55421 8.07011L4.55423 8.07001C4.80924 6.64244 5.55208 5.43084 6.70258 4.56856L6.70259 4.56855C8.55722 3.17818 11.1196 3.10906 13.0505 4.39955L13.0506 4.39961C13.2092 4.50531 13.3456 4.60369 13.4386 4.67727C13.4578 4.69242 13.4747 4.70621 13.4893 4.71855C13.446 4.74872 13.3905 4.787 13.3308 4.82789L13.3305 4.82814C13.2036 4.9159 13.1119 4.98586 13.0622 5.05509C13.0348 5.09321 13.0167 5.13531 13.0138 5.18309C13.0109 5.22862 13.0225 5.26993 13.0374 5.30611C13.0485 5.33509 13.0648 5.36285 13.0819 5.38543C13.0964 5.40444 13.1214 5.43327 13.155 5.44908C13.1652 5.45407 13.1775 5.45858 13.185 5.4613L13.1855 5.46151C13.1981 5.46612 13.2147 5.4719 13.2344 5.47863C13.274 5.49213 13.3283 5.51004 13.3932 5.53103C13.5232 5.57301 13.6969 5.62769 13.8839 5.68476C13.884 5.6848 13.8841 5.68483 13.8842 5.68487L13.9134 5.58922C14.6432 5.81712 14.728 5.82924 14.8032 5.72499L9.59069 2.90042ZM9.59069 2.90042C9.69804 2.88995 9.94381 2.8928 10.19 2.90214C10.4378 2.91154 10.6984 2.92803 10.8381 2.94691L10.8386 2.94697C11.9326 3.09974 13.0289 3.57488 13.8487 4.25394L13.8491 4.25427C13.9004 4.29721 13.9483 4.33564 13.9842 4.36302C13.9877 4.36569 13.991 4.36824 13.9942 4.37064M9.59069 2.90042L14.8976 4.06824C14.8673 4.03579 14.8299 4.00387 14.7808 3.98684C14.7294 3.969 14.6775 3.9716 14.6257 3.98621C14.5315 4.0128 14.413 4.08749 14.2495 4.20009L14.2493 4.2002C14.1676 4.2567 14.0914 4.3077 14.035 4.34442C14.0197 4.35433 14.0061 4.36312 13.9942 4.37064M14.9638 4.932L14.9638 4.93209C14.9565 5.25828 14.951 5.44688 14.9423 5.56052C14.9338 5.67057 14.9217 5.73185 14.8843 5.78347L14.8638 4.92978L14.9638 4.932ZM14.9638 4.932L14.9807 4.19749L14.9817 4.15597L14.953 4.12599L14.8981 4.06877L14.9638 4.932ZM13.9942 4.37064C14.0075 4.38068 14.0182 4.3884 14.0258 4.39365L14.0314 4.39733C14.0328 4.39826 14.0334 4.39862 14.0334 4.39859L14.0322 4.39794L14.0281 4.39602C14.0264 4.39525 14.0228 4.39379 14.018 4.39239C14.0142 4.39125 14.0042 4.38854 13.991 4.38854C13.9795 4.38854 13.9707 4.39059 13.9673 4.39144C13.963 4.3925 13.9597 4.39363 13.9579 4.39429C13.9561 4.39495 13.9546 4.39558 13.9534 4.39607C13.9523 4.39655 13.9515 4.39691 13.9512 4.39705C13.9498 4.39774 13.9496 4.39792 13.9513 4.39696C13.9544 4.39523 13.9598 4.39204 13.9679 4.38708C13.9752 4.38259 13.9841 4.37708 13.9942 4.37064ZM13.975 5.09593L14.1279 5.14479L14.1281 5.14485L14.3595 5.21825L14.3689 5.09951C14.3689 5.09939 14.3689 5.09927 14.3689 5.09915C14.3759 5.00307 14.3802 4.89466 14.3812 4.82156L14.1659 4.96649L14.1657 4.96666L13.975 5.09593Z" fill="#FFBB00" stroke="#FFBB00" stroke-width="0.2"/>
<path d="M14.9848 6.00511L14.9847 6.00521L14.8222 6.10218L14.739 6.15187L14.7861 6.23661L14.8828 6.41066C14.8828 6.41073 14.8829 6.4108 14.8829 6.41088C15.072 6.75612 15.2847 7.32428 15.3822 7.74526C15.4869 8.20228 15.5129 8.44198 15.5129 8.99794C15.5129 9.57515 15.4846 9.81684 15.3655 10.3052L15.3654 10.3055C14.8131 12.5934 12.8534 14.2796 10.5004 14.4963L10.5004 14.4963C8.89982 14.644 7.2399 14.0526 6.14897 12.945L6.14891 12.945L6.05722 12.852L6.18591 12.7667C6.18598 12.7666 6.18605 12.7666 6.18612 12.7665C6.33546 12.6686 6.43221 12.6017 6.49064 12.5461C6.52114 12.517 6.54624 12.4865 6.56287 12.4511C6.58019 12.4142 6.58503 12.3789 6.58503 12.3461C6.58503 12.304 6.58146 12.251 6.54937 12.1996C6.51828 12.1498 6.4691 12.115 6.40995 12.085C6.29444 12.0265 6.08678 11.9606 5.72632 11.8504L5.72628 11.8504C5.53895 11.7932 5.35924 11.7408 5.22057 11.7026C5.15132 11.6836 5.0917 11.6679 5.04623 11.6569C5.02357 11.6514 5.00364 11.6469 4.9874 11.6437C4.97426 11.6411 4.9549 11.6375 4.93825 11.6375C4.89237 11.6375 4.82647 11.6398 4.77063 11.6822C4.71403 11.7251 4.68876 11.7923 4.67391 11.8647C4.64448 12.0082 4.63939 12.2683 4.6346 12.7256L4.63461 12.7256L4.7346 12.7267L4.6346 12.7256L14.9848 6.00511ZM14.9848 6.00511C15.0322 5.97694 15.0789 5.95248 15.1165 5.93591C15.1349 5.92784 15.154 5.92031 15.1714 5.91553C15.1796 5.91328 15.192 5.91036 15.2058 5.90966C15.2127 5.9093 15.2237 5.90929 15.2365 5.91209C15.2489 5.9148 15.2698 5.92169 15.2885 5.94035L15.2885 5.94031L15.2909 5.94283C15.3003 5.95294 15.3079 5.96486 15.3116 5.9709C15.3167 5.97905 15.3223 5.98869 15.3282 5.99913C15.3399 6.02013 15.3544 6.04743 15.3705 6.07886C15.4028 6.1419 15.4434 6.22425 15.4853 6.31188C15.5687 6.48625 15.6598 6.68617 15.7037 6.79909M14.9848 6.00511L5.73175 13.3658L5.73191 13.366C6.22149 13.8383 6.69055 14.1717 7.28929 14.4674C9.01679 15.3225 11.0184 15.3201 12.7412 14.455C14.5312 13.5575 15.7483 11.8589 16.0561 9.83729L16.0562 9.83677C16.0827 9.65616 16.0972 9.3406 16.0996 9.03297C16.1021 8.72573 16.0925 8.41492 16.0683 8.24445L16.0683 8.24435C15.9923 7.71186 15.8645 7.21213 15.7037 6.79909M15.7037 6.79909L15.6105 6.83536M15.7037 6.79909C15.7037 6.7991 15.7037 6.79911 15.7037 6.79912L15.6105 6.83536M15.6105 6.83536C15.7681 7.24024 15.8942 7.7324 15.9693 8.25849L15.6105 6.83536ZM4.72284 13.4907C4.72262 13.4906 4.72241 13.4904 4.72219 13.4902L4.78551 13.4128L4.72344 13.4912L4.72284 13.4907ZM5.52422 12.4051L5.52379 12.405C5.40704 12.3679 5.29146 12.334 5.22735 12.3171V12.5449V12.7104L5.39326 12.5981C5.47908 12.5385 5.56083 12.4817 5.62374 12.437C5.59622 12.4279 5.56334 12.4174 5.52422 12.4051ZM5.56617 13.0661L5.62277 13.1486L5.55532 13.1948L5.49658 13.1379L5.56617 13.0661Z" fill="#FFBB00" stroke="#FFBB00" stroke-width="0.2"/>
<mask id="path-3-outside-1_1_1197" maskUnits="userSpaceOnUse" x="4.73346" y="5.93747" width="10" height="6" fill="black">
<rect fill="white" x="4.73346" y="5.93747" width="10" height="6"/>
<path d="M7.24872 6.8984C6.98931 6.98083 6.79778 7.14569 6.68625 7.3857C6.62807 7.50935 6.61837 7.56268 6.61837 7.73724C6.61837 7.92392 6.62564 7.96029 6.69838 8.10818C6.74444 8.20031 6.77596 8.27546 6.77111 8.28031C6.76868 8.28274 6.71535 8.30698 6.65474 8.33122C6.49473 8.40153 6.3032 8.60276 6.21107 8.79671L6.13349 8.96157L6.12621 9.65738L6.11894 10.3556H6.31289H6.50927V9.73496C6.50927 9.31796 6.51897 9.08037 6.53837 9.01248C6.57716 8.87914 6.77838 8.67792 6.91172 8.63912C7.04749 8.60033 7.91058 8.60033 8.04635 8.63912C8.17969 8.67792 8.38092 8.87914 8.41971 9.01248C8.47547 9.19916 8.48759 9.19189 8.12393 9.19189C7.84997 9.19189 7.79179 9.19916 7.74815 9.23311C7.71178 9.26462 7.66087 9.40766 7.56147 9.74951C7.48874 10.0089 7.40631 10.295 7.37964 10.3847L7.33115 10.5496H6.53352H5.73346V10.7435V10.9375H10.0004H14.2674V10.7435V10.5496H13.9159C13.7219 10.5496 13.5643 10.5423 13.5643 10.5302C13.5643 10.5205 13.6346 10.2659 13.7219 9.96285C13.8092 9.6598 13.8795 9.38827 13.8795 9.3616C13.8795 9.33251 13.8528 9.28402 13.8189 9.2525C13.7607 9.19189 13.7534 9.19189 13.3388 9.19189H12.9146L12.9 9.06097C12.8637 8.77489 12.6212 8.44032 12.3764 8.33122C12.3157 8.30698 12.2624 8.28274 12.26 8.28031C12.2551 8.27546 12.2867 8.20031 12.3327 8.10818C12.4054 7.96029 12.4127 7.92392 12.4127 7.73724C12.4127 7.56268 12.403 7.50935 12.3448 7.3857C12.0248 6.69959 11.0793 6.69959 10.7593 7.3857C10.7011 7.50935 10.6914 7.56268 10.6914 7.73724C10.6914 7.92392 10.6987 7.96029 10.7714 8.10818C10.8175 8.20031 10.849 8.27546 10.8441 8.28031C10.8417 8.28274 10.7884 8.30698 10.7278 8.33122C10.5677 8.40153 10.3762 8.60276 10.2841 8.79671L10.2065 8.96157L10.1992 9.65738L10.192 10.3556H10.3859H10.5823V9.73496C10.5823 9.31796 10.592 9.08037 10.6114 9.01248C10.6502 8.87914 10.8514 8.67792 10.9847 8.63912C11.1205 8.60033 11.9836 8.60033 12.1194 8.63912C12.2527 8.67792 12.4539 8.87914 12.4927 9.01248C12.5485 9.19916 12.5606 9.19189 12.1969 9.19189C11.923 9.19189 11.8648 9.19916 11.8212 9.23311C11.7848 9.26462 11.7339 9.40766 11.6345 9.74951C11.5618 10.0089 11.4793 10.295 11.4527 10.3847L11.4042 10.5496H10.4489C9.92285 10.5496 9.4913 10.5423 9.4913 10.5302C9.4913 10.5205 9.56161 10.2659 9.64889 9.96285C9.73617 9.6598 9.80648 9.38827 9.80648 9.3616C9.80648 9.33251 9.77981 9.28402 9.74586 9.2525C9.68768 9.19189 9.68041 9.19189 9.26583 9.19189H8.84156L8.82701 9.06097C8.79065 8.77489 8.5482 8.44032 8.30334 8.33122C8.24273 8.30698 8.18939 8.28274 8.18697 8.28031C8.18212 8.27546 8.21364 8.20031 8.2597 8.10818C8.33243 7.96029 8.3397 7.92392 8.3397 7.73724C8.3397 7.56268 8.33001 7.50935 8.27182 7.3857C8.19909 7.22812 8.07544 7.08508 7.93725 6.9978C7.74815 6.87658 7.45479 6.83294 7.24872 6.8984ZM7.75542 7.34206C7.88876 7.43662 7.9518 7.56753 7.9518 7.74936C7.9518 8.02332 7.76512 8.21 7.49358 8.21C7.14932 8.21 6.9287 7.92392 7.01597 7.59663C7.04992 7.47298 7.19781 7.31297 7.31418 7.27903C7.44994 7.23781 7.64632 7.26448 7.75542 7.34206ZM11.8284 7.34206C11.9618 7.43662 12.0248 7.56753 12.0248 7.74936C12.0248 8.02332 11.8381 8.21 11.5666 8.21C11.2223 8.21 11.0017 7.92392 11.089 7.59663C11.1229 7.47298 11.2708 7.31297 11.3872 7.27903C11.523 7.23781 11.7193 7.26448 11.8284 7.34206ZM9.34584 9.59919C9.34584 9.61616 9.23674 10.0089 9.12522 10.3847L9.07673 10.5496H8.41244C8.04635 10.5496 7.74572 10.5399 7.74572 10.5302C7.74572 10.5132 7.85482 10.1204 7.96635 9.74223L8.01483 9.5798H8.67912C9.04521 9.5798 9.34584 9.5895 9.34584 9.59919ZM13.4189 9.59919C13.4189 9.61616 13.3098 10.0089 13.1982 10.3847L13.1497 10.5496H12.4855C12.1194 10.5496 11.8187 10.5399 11.8187 10.5302C11.8187 10.5132 11.9278 10.1204 12.0394 9.74223L12.0878 9.5798H12.7521C13.1182 9.5798 13.4189 9.5895 13.4189 9.59919Z"/>
</mask>
<path d="M7.24872 6.8984C6.98931 6.98083 6.79778 7.14569 6.68625 7.3857C6.62807 7.50935 6.61837 7.56268 6.61837 7.73724C6.61837 7.92392 6.62564 7.96029 6.69838 8.10818C6.74444 8.20031 6.77596 8.27546 6.77111 8.28031C6.76868 8.28274 6.71535 8.30698 6.65474 8.33122C6.49473 8.40153 6.3032 8.60276 6.21107 8.79671L6.13349 8.96157L6.12621 9.65738L6.11894 10.3556H6.31289H6.50927V9.73496C6.50927 9.31796 6.51897 9.08037 6.53837 9.01248C6.57716 8.87914 6.77838 8.67792 6.91172 8.63912C7.04749 8.60033 7.91058 8.60033 8.04635 8.63912C8.17969 8.67792 8.38092 8.87914 8.41971 9.01248C8.47547 9.19916 8.48759 9.19189 8.12393 9.19189C7.84997 9.19189 7.79179 9.19916 7.74815 9.23311C7.71178 9.26462 7.66087 9.40766 7.56147 9.74951C7.48874 10.0089 7.40631 10.295 7.37964 10.3847L7.33115 10.5496H6.53352H5.73346V10.7435V10.9375H10.0004H14.2674V10.7435V10.5496H13.9159C13.7219 10.5496 13.5643 10.5423 13.5643 10.5302C13.5643 10.5205 13.6346 10.2659 13.7219 9.96285C13.8092 9.6598 13.8795 9.38827 13.8795 9.3616C13.8795 9.33251 13.8528 9.28402 13.8189 9.2525C13.7607 9.19189 13.7534 9.19189 13.3388 9.19189H12.9146L12.9 9.06097C12.8637 8.77489 12.6212 8.44032 12.3764 8.33122C12.3157 8.30698 12.2624 8.28274 12.26 8.28031C12.2551 8.27546 12.2867 8.20031 12.3327 8.10818C12.4054 7.96029 12.4127 7.92392 12.4127 7.73724C12.4127 7.56268 12.403 7.50935 12.3448 7.3857C12.0248 6.69959 11.0793 6.69959 10.7593 7.3857C10.7011 7.50935 10.6914 7.56268 10.6914 7.73724C10.6914 7.92392 10.6987 7.96029 10.7714 8.10818C10.8175 8.20031 10.849 8.27546 10.8441 8.28031C10.8417 8.28274 10.7884 8.30698 10.7278 8.33122C10.5677 8.40153 10.3762 8.60276 10.2841 8.79671L10.2065 8.96157L10.1992 9.65738L10.192 10.3556H10.3859H10.5823V9.73496C10.5823 9.31796 10.592 9.08037 10.6114 9.01248C10.6502 8.87914 10.8514 8.67792 10.9847 8.63912C11.1205 8.60033 11.9836 8.60033 12.1194 8.63912C12.2527 8.67792 12.4539 8.87914 12.4927 9.01248C12.5485 9.19916 12.5606 9.19189 12.1969 9.19189C11.923 9.19189 11.8648 9.19916 11.8212 9.23311C11.7848 9.26462 11.7339 9.40766 11.6345 9.74951C11.5618 10.0089 11.4793 10.295 11.4527 10.3847L11.4042 10.5496H10.4489C9.92285 10.5496 9.4913 10.5423 9.4913 10.5302C9.4913 10.5205 9.56161 10.2659 9.64889 9.96285C9.73617 9.6598 9.80648 9.38827 9.80648 9.3616C9.80648 9.33251 9.77981 9.28402 9.74586 9.2525C9.68768 9.19189 9.68041 9.19189 9.26583 9.19189H8.84156L8.82701 9.06097C8.79065 8.77489 8.5482 8.44032 8.30334 8.33122C8.24273 8.30698 8.18939 8.28274 8.18697 8.28031C8.18212 8.27546 8.21364 8.20031 8.2597 8.10818C8.33243 7.96029 8.3397 7.92392 8.3397 7.73724C8.3397 7.56268 8.33001 7.50935 8.27182 7.3857C8.19909 7.22812 8.07544 7.08508 7.93725 6.9978C7.74815 6.87658 7.45479 6.83294 7.24872 6.8984ZM7.75542 7.34206C7.88876 7.43662 7.9518 7.56753 7.9518 7.74936C7.9518 8.02332 7.76512 8.21 7.49358 8.21C7.14932 8.21 6.9287 7.92392 7.01597 7.59663C7.04992 7.47298 7.19781 7.31297 7.31418 7.27903C7.44994 7.23781 7.64632 7.26448 7.75542 7.34206ZM11.8284 7.34206C11.9618 7.43662 12.0248 7.56753 12.0248 7.74936C12.0248 8.02332 11.8381 8.21 11.5666 8.21C11.2223 8.21 11.0017 7.92392 11.089 7.59663C11.1229 7.47298 11.2708 7.31297 11.3872 7.27903C11.523 7.23781 11.7193 7.26448 11.8284 7.34206ZM9.34584 9.59919C9.34584 9.61616 9.23674 10.0089 9.12522 10.3847L9.07673 10.5496H8.41244C8.04635 10.5496 7.74572 10.5399 7.74572 10.5302C7.74572 10.5132 7.85482 10.1204 7.96635 9.74223L8.01483 9.5798H8.67912C9.04521 9.5798 9.34584 9.5895 9.34584 9.59919ZM13.4189 9.59919C13.4189 9.61616 13.3098 10.0089 13.1982 10.3847L13.1497 10.5496H12.4855C12.1194 10.5496 11.8187 10.5399 11.8187 10.5302C11.8187 10.5132 11.9278 10.1204 12.0394 9.74223L12.0878 9.5798H12.7521C13.1182 9.5798 13.4189 9.5895 13.4189 9.59919Z" fill="#FFBB00"/>
<path d="M7.24872 6.8984C6.98931 6.98083 6.79778 7.14569 6.68625 7.3857C6.62807 7.50935 6.61837 7.56268 6.61837 7.73724C6.61837 7.92392 6.62564 7.96029 6.69838 8.10818C6.74444 8.20031 6.77596 8.27546 6.77111 8.28031C6.76868 8.28274 6.71535 8.30698 6.65474 8.33122C6.49473 8.40153 6.3032 8.60276 6.21107 8.79671L6.13349 8.96157L6.12621 9.65738L6.11894 10.3556H6.31289H6.50927V9.73496C6.50927 9.31796 6.51897 9.08037 6.53837 9.01248C6.57716 8.87914 6.77838 8.67792 6.91172 8.63912C7.04749 8.60033 7.91058 8.60033 8.04635 8.63912C8.17969 8.67792 8.38092 8.87914 8.41971 9.01248C8.47547 9.19916 8.48759 9.19189 8.12393 9.19189C7.84997 9.19189 7.79179 9.19916 7.74815 9.23311C7.71178 9.26462 7.66087 9.40766 7.56147 9.74951C7.48874 10.0089 7.40631 10.295 7.37964 10.3847L7.33115 10.5496H6.53352H5.73346V10.7435V10.9375H10.0004H14.2674V10.7435V10.5496H13.9159C13.7219 10.5496 13.5643 10.5423 13.5643 10.5302C13.5643 10.5205 13.6346 10.2659 13.7219 9.96285C13.8092 9.6598 13.8795 9.38827 13.8795 9.3616C13.8795 9.33251 13.8528 9.28402 13.8189 9.2525C13.7607 9.19189 13.7534 9.19189 13.3388 9.19189H12.9146L12.9 9.06097C12.8637 8.77489 12.6212 8.44032 12.3764 8.33122C12.3157 8.30698 12.2624 8.28274 12.26 8.28031C12.2551 8.27546 12.2867 8.20031 12.3327 8.10818C12.4054 7.96029 12.4127 7.92392 12.4127 7.73724C12.4127 7.56268 12.403 7.50935 12.3448 7.3857C12.0248 6.69959 11.0793 6.69959 10.7593 7.3857C10.7011 7.50935 10.6914 7.56268 10.6914 7.73724C10.6914 7.92392 10.6987 7.96029 10.7714 8.10818C10.8175 8.20031 10.849 8.27546 10.8441 8.28031C10.8417 8.28274 10.7884 8.30698 10.7278 8.33122C10.5677 8.40153 10.3762 8.60276 10.2841 8.79671L10.2065 8.96157L10.1992 9.65738L10.192 10.3556H10.3859H10.5823V9.73496C10.5823 9.31796 10.592 9.08037 10.6114 9.01248C10.6502 8.87914 10.8514 8.67792 10.9847 8.63912C11.1205 8.60033 11.9836 8.60033 12.1194 8.63912C12.2527 8.67792 12.4539 8.87914 12.4927 9.01248C12.5485 9.19916 12.5606 9.19189 12.1969 9.19189C11.923 9.19189 11.8648 9.19916 11.8212 9.23311C11.7848 9.26462 11.7339 9.40766 11.6345 9.74951C11.5618 10.0089 11.4793 10.295 11.4527 10.3847L11.4042 10.5496H10.4489C9.92285 10.5496 9.4913 10.5423 9.4913 10.5302C9.4913 10.5205 9.56161 10.2659 9.64889 9.96285C9.73617 9.6598 9.80648 9.38827 9.80648 9.3616C9.80648 9.33251 9.77981 9.28402 9.74586 9.2525C9.68768 9.19189 9.68041 9.19189 9.26583 9.19189H8.84156L8.82701 9.06097C8.79065 8.77489 8.5482 8.44032 8.30334 8.33122C8.24273 8.30698 8.18939 8.28274 8.18697 8.28031C8.18212 8.27546 8.21364 8.20031 8.2597 8.10818C8.33243 7.96029 8.3397 7.92392 8.3397 7.73724C8.3397 7.56268 8.33001 7.50935 8.27182 7.3857C8.19909 7.22812 8.07544 7.08508 7.93725 6.9978C7.74815 6.87658 7.45479 6.83294 7.24872 6.8984ZM7.75542 7.34206C7.88876 7.43662 7.9518 7.56753 7.9518 7.74936C7.9518 8.02332 7.76512 8.21 7.49358 8.21C7.14932 8.21 6.9287 7.92392 7.01597 7.59663C7.04992 7.47298 7.19781 7.31297 7.31418 7.27903C7.44994 7.23781 7.64632 7.26448 7.75542 7.34206ZM11.8284 7.34206C11.9618 7.43662 12.0248 7.56753 12.0248 7.74936C12.0248 8.02332 11.8381 8.21 11.5666 8.21C11.2223 8.21 11.0017 7.92392 11.089 7.59663C11.1229 7.47298 11.2708 7.31297 11.3872 7.27903C11.523 7.23781 11.7193 7.26448 11.8284 7.34206ZM9.34584 9.59919C9.34584 9.61616 9.23674 10.0089 9.12522 10.3847L9.07673 10.5496H8.41244C8.04635 10.5496 7.74572 10.5399 7.74572 10.5302C7.74572 10.5132 7.85482 10.1204 7.96635 9.74223L8.01483 9.5798H8.67912C9.04521 9.5798 9.34584 9.5895 9.34584 9.59919ZM13.4189 9.59919C13.4189 9.61616 13.3098 10.0089 13.1982 10.3847L13.1497 10.5496H12.4855C12.1194 10.5496 11.8187 10.5399 11.8187 10.5302C11.8187 10.5132 11.9278 10.1204 12.0394 9.74223L12.0878 9.5798H12.7521C13.1182 9.5798 13.4189 9.5895 13.4189 9.59919Z" stroke="#FFBB00" stroke-width="0.2" mask="url(#path-3-outside-1_1_1197)"/>
</g>
<defs>
<filter id="filter0_d_1_1197" x="0.799999" y="0.793762" width="18.4" height="18.4125" filterUnits="userSpaceOnUse" color-interpolation-filters="sRGB">
<feFlood flood-opacity="0" result="BackgroundImageFix"/>
<feColorMatrix in="SourceAlpha" type="matrix" values="0 0 0 0 0 0 0 0 0 0 0 0 0 0 0 0 0 0 127 0" result="hardAlpha"/>
<feOffset dy="1"/>
<feGaussianBlur stdDeviation="1.5"/>
<feComposite in2="hardAlpha" operator="out"/>
<feColorMatrix type="matrix" values="0 0 0 0 1 0 0 0 0 0.815755 0 0 0 0 0.309082 0 0 0 0.6 0"/>
<feBlend mode="normal" in2="BackgroundImageFix" result="effect1_dropShadow_1_1197"/>
<feBlend mode="normal" in="SourceGraphic" in2="effect1_dropShadow_1_1197" result="shape"/>
</filter>
</defs>
</svg>
